#!OML:ASF H:\LiuWeirdWalks\Patient Classification 1\Patient 1\Session 1\male.ASF
:FULLY-SPECIFIED
:DEGREES
331
root 0.810275 18.0616 -23.8046 5.55073 4.62484 -2.13329
lowerback 2.34666 -2.60497 -0.377686
upperback -2.47326 -3.37225 3.70848
thorax -3.62035 -1.61992 4.22552
lowerneck -16.4946 1.95012 6.38216
upperneck 22.0605 2.46302 -5.98303
head 9.88019 0.987708 -2.84485
rclavicle 2.78795e-014 -1.03368e-014
rhumerus -48.4708 -10.6722 -70.7427
rradius 33.2131
rwrist -10.4935
rhand -16.7593 -4.50998
rfingers 7.12502
rthumb 9.46764 -34.2773
lclavicle 2.78795e-014 -1.03368e-014
lhumerus -37.3924 5.42256 81.2815
lradius 35.9366
lwrist 13.5674
lhand -12.7306 -0.37145
lfingers 7.12502
lthumb 13.3529 29.1807
rfemur -21.7453 0.203386 26.4765
rtibia 28.4488
rfoot -9.90568 -12.331
rtoes 4.35256
lfemur 6.80986 -3.46828 -15.1973
ltibia 33.8513
lfoot 12.6032 -2.77552
ltoes -16.812
332
root 0.796963 18.0619 -23.7513 5.50891 4.74114 -2.24627
lowerback 2.39572 -2.47385 -0.206576
upperback -2.43608 -3.19104 3.65555
thorax -3.63493 -1.53453 4.0668
lowerneck -16.6226 1.79631 6.33888
upperneck 22.1646 2.2247 -5.86004
head 9.92236 0.88659 -2.82788
rclavicle -2.81032e-014 -2.38542e-015
rhumerus -48.4858 -10.8298 -70.902
rradius 33.6461
rwrist -10.7253
rhand -16.8047 -4.51132
rfingers 7.12502
rthumb 9.42374 -34.2806
lclavicle -2.81032e-014 -2.38542e-015
lhumerus -37.4105 5.12864 81.2785
lradius 35.9735
lwrist 13.5967
lhand -12.7378 -0.356576
lfingers 7.12502
lthumb 13.3459 29.196
rfemur -21.461 0.198628 26.6629
rtibia 28.3507
rfoot -10.0533 -12.4112
rtoes 4.4393
lfemur 6.15824 -3.29796 -14.9028
ltibia 35.134
lfoot 13.0191 -3.08799
ltoes -15.7406
333
root 0.784343 18.0625 -23.6989 5.46479 4.86243 -2.35595
lowerback 2.42318 -2.31284 0.00455383
upperback -2.40781 -2.96971 3.55457
thorax -3.65222 -1.43069 3.83249
lowerneck -16.661 1.57136 6.26352
upperneck 22.2397 1.8761 -5.64466
head 9.92891 0.743814 -2.78678
rclavicle 4.20181e-014 -2.38542e-014
rhumerus -48.5675 -11.1148 -71.054
rradius 34.0762
rwrist -10.9398
rhand -16.8486 -4.52355
rfingers 7.12502
rthumb 9.38141 -34.2948
lclavicle 4.20181e-014 -2.38542e-014
lhumerus -37.4341 4.67276 81.2717
lradius 36.0143
lwrist 13.67
lhand -12.7667 -0.314022
lfingers 7.12502
lthumb 13.318 29.2404
rfemur -21.1713 0.176899 26.8443
rtibia 28.2418
rfoot -10.2004 -12.4833
rtoes 4.51642
lfemur 5.48158 -3.12684 -14.6171
ltibia 36.4355
lfoot 13.3696 -3.40779
ltoes -14.2782
334
root 0.772028 18.0634 -23.6476 5.4139 4.98508 -2.47295
lowerback 2.46351 -2.1096 0.26226
upperback -2.38228 -2.69116 3.40311
thorax -3.68507 -1.30004 3.5171
lowerneck -16.6879 1.26981 6.17123
upperneck 22.3085 1.40323 -5.34325
head 9.92329 0.552425 -2.72858
rclavicle 3.56818e-014 -3.26007e-014
rhumerus -48.714 -11.5495 -71.2081
rradius 34.5312
rwrist -11.1577
rhand -16.9051 -4.56183
rfingers 7.12502
rthumb 9.32688 -34.3355
lclavicle 3.56818e-014 -3.26007e-014
lhumerus -37.4257 4.02894 81.264
lradius 36.0458
lwrist 13.7772
lhand -12.8094 -0.275748
lfingers 7.12502
lthumb 13.2769 29.2814
rfemur -20.8703 0.141576 27.0337
rtibia 28.1168
rfoot -10.34 -12.5466
rtoes 4.57392
lfemur 4.78042 -2.9408 -14.3221
ltibia 37.7567
lfoot 13.7342 -3.75945
ltoes -12.3811
335
root 0.759927 18.0643 -23.5974 5.35695 5.11035 -2.59897
lowerback 2.49135 -2.07348 0.42665
upperback -2.37218 -2.63423 3.43168
thorax -3.69973 -1.2754 3.45246
lowerneck -16.6367 1.24499 6.15228
upperneck 22.3143 1.3827 -5.36446
head 9.91415 0.539674 -2.73551
rclavicle 2.1593e-014 1.90833e-014
rhumerus -48.6625 -11.3464 -71.4238
rradius 34.9648
rwrist -11.4384
rhand -16.9629 -4.6116
rfingers 7.12502
rthumb 9.27116 -34.3878
lclavicle 2.1593e-014 1.90833e-014
lhumerus -37.6033 4.01217 81.2406
lradius 36.1225
lwrist 13.8298
lhand -12.8548 -0.259774
lfingers 7.12502
lthumb 13.2332 29.3002
rfemur -20.5602 0.0981869 27.2323
rtibia 27.976
rfoot -10.4687 -12.6064
rtoes 4.61543
lfemur 4.06325 -2.7453 -14.017
ltibia 39.0925
lfoot 13.9904 -4.10376
ltoes -10.7238
336
root 0.747859 18.0648 -23.5483 5.28812 5.23722 -2.74561
lowerback 2.5281 -2.04237 0.605965
upperback -2.35653 -2.58282 3.47069
thorax -3.71336 -1.25381 3.39075
lowerneck -16.5357 1.22828 6.15043
upperneck 22.2443 1.37603 -5.41165
head 9.86986 0.531968 -2.75099
rclavicle 2.28354e-014 -2.38542e-015
rhumerus -48.5947 -11.1441 -71.6339
rradius 35.3897
rwrist -11.6771
rhand -17.0057 -4.6575
rfingers 7.12502
rthumb 9.22986 -34.4355
lclavicle 2.28354e-014 -2.38542e-015
lhumerus -37.7692 4.009 81.2151
lradius 36.1813
lwrist 13.8726
lhand -12.8925 -0.289368
lfingers 7.12502
lthumb 13.1968 29.2729
rfemur -20.2354 0.0519986 27.4534
rtibia 27.8176
rfoot -10.5839 -12.6683
rtoes 4.63093
lfemur 3.33679 -2.54276 -13.6883
ltibia 40.4413
lfoot 14.0953 -4.41584
ltoes -9.42398
337
root 0.736164 18.0652 -23.5004 5.20796 5.36834 -2.89325
lowerback 2.5794 -2.00423 0.78827
upperback -2.33221 -2.52176 3.50526
thorax -3.72683 -1.22758 3.32255
lowerneck -16.4964 1.20037 6.14552
upperneck 22.2303 1.34925 -5.44617
head 9.85569 0.515756 -2.76545
rclavicle 1.5704e-014 -2.78299e-014
rhumerus -48.5201 -10.975 -71.8346
rradius 35.8079
rwrist -11.8884
rhand -17.0421 -4.68678
rfingers 7.12502
rthumb 9.19473 -34.4663
lclavicle 1.5704e-014 -2.78299e-014
lhumerus -37.9088 3.97745 81.1971
lradius 36.2264
lwrist 13.8986
lhand -12.917 -0.343688
lfingers 7.12502
lthumb 13.1732 29.2202
rfemur -19.898 -0.0169198 27.6747
rtibia 27.6483
rfoot -10.6883 -12.717
rtoes 4.61326
lfemur 2.6044 -2.35445 -13.3638
ltibia 41.792
lfoot 13.9807 -4.60432
ltoes -8.70456
338
root 0.724607 18.0656 -23.4536 5.11575 5.50465 -3.05443
lowerback 2.64458 -1.96512 0.978489
upperback -2.29728 -2.4586 3.54497
thorax -3.73711 -1.20049 3.25531
lowerneck -16.484 1.16965 6.14799
upperneck 22.2233 1.31658 -5.48661
head 9.84877 0.496478 -2.78428
rclavicle -2.26118e-015 3.49861e-014
rhumerus -48.4284 -10.8156 -72.0309
rradius 36.2172
rwrist -12.0848
rhand -17.0599 -4.66999
rfingers 7.12502
rthumb 9.17752 -34.4503
lclavicle -2.26118e-015 3.49861e-014
lhumerus -37.9985 3.94992 81.1849
lradius 36.2244
lwrist 13.9158
lhand -12.9353 -0.433262
lfingers 7.12502
lthumb 13.1556 29.1317
rfemur -19.5498 -0.107052 27.9102
rtibia 27.4703
rfoot -10.7797 -12.7509
rtoes 4.57577
lfemur 1.86649 -2.1837 -13.0294
ltibia 43.1371
lfoot 13.5649 -4.64182
ltoes -8.71604
339
root 0.713604 18.0658 -23.4073 5.01778 5.6502 -3.20357
lowerback 2.7063 -1.9186 1.16221
upperback -2.25071 -2.38654 3.57252
thorax -3.73367 -1.16906 3.17796
lowerneck -16.5134 1.10895 6.13125
upperneck 22.2608 1.23877 -5.49833
head 9.86217 0.457711 -2.79673
rclavicle 3.04141e-014 -2.78299e-014
rhumerus -48.3169 -10.719 -72.2109
rradius 36.5957
rwrist -12.2485
rhand -17.0753 -4.6488
rfingers 7.12502
rthumb 9.16269 -34.4297
lclavicle 3.04141e-014 -2.78299e-014
lhumerus -38.0503 3.89417 81.1775
lradius 36.2027
lwrist 13.9172
lhand -12.9447 -0.504729
lfingers 7.12502
lthumb 13.1465 29.0608
rfemur -19.1953 -0.233469 28.1311
rtibia 27.2872
rfoot -10.8651 -12.7613
rtoes 4.51726
lfemur 1.12935 -2.04457 -12.7178
ltibia 44.461
lfoot 12.8388 -4.55525
ltoes -9.35216
340
root 0.702912 18.0659 -23.362 4.91521 5.7998 -3.35119
lowerback 2.77605 -1.87615 1.34066
upperback -2.20824 -2.31939 3.60461
thorax -3.7381 -1.13977 3.10897
lowerneck -16.5963 1.05266 6.10469
upperneck 22.3728 1.16715 -5.50283
head 9.91259 0.421595 -2.80602
rclavicle 4.2689e-014 -3.18055e-014
rhumerus -48.2048 -10.5999 -72.3918
rradius 36.9716
rwrist -12.4251
rhand -17.0918 -4.6376
rfingers 7.12502
rthumb 9.14674 -34.4192
lclavicle 4.2689e-014 -3.18055e-014
lhumerus -38.1152 3.85107 81.1742
lradius 36.1856
lwrist 13.901
lhand -12.9439 -0.552992
lfingers 7.12502
lthumb 13.1473 29.0125
rfemur -18.838 -0.383869 28.3487
rtibia 27.0988
rfoot -10.9362 -12.7511
rtoes 4.44051
lfemur 0.391882 -1.92228 -12.4137
ltibia 45.755
lfoot 11.8287 -4.36547
ltoes -10.264
341
root 0.692497 18.066 -23.3173 4.80847 5.95299 -3.4999
lowerback 2.84807 -1.82164 1.53121
upperback -2.1676 -2.23572 3.621
thorax -3.74712 -1.10269 3.01596
lowerneck -16.7014 0.976226 6.06823
upperneck 22.5309 1.06003 -5.4677
head 9.98114 0.372903 -2.80546
rclavicle -1.0138e-014 -1.11319e-014
rhumerus -48.1292 -10.5178 -72.5716
rradius 37.3627
rwrist -12.6073
rhand -17.1012 -4.63597
rfingers 7.12502
rthumb 9.13773 -34.418
lclavicle -1.0138e-014 -1.11319e-014
lhumerus -38.1677 3.76077 81.1712
lradius 36.1587
lwrist 13.8683
lhand -12.9301 -0.56751
lfingers 7.12502
lthumb 13.1605 28.9972
rfemur -18.4789 -0.544841 28.5654
rtibia 26.9099
rfoot -10.998 -12.7338
rtoes 4.35614
lfemur -0.347805 -1.81973 -12.1137
ltibia 47.0086
lfoot 10.6013 -4.12841
ltoes -10.9591
342
root 0.682403 18.0664 -23.2732 4.69796 6.10379 -3.64347
lowerback 2.9118 -1.77301 1.71554
upperback -2.12547 -2.16034 3.63882
thorax -3.74885 -1.06957 2.92793
lowerneck -16.7916 0.917883 6.04246
upperneck 22.6645 0.976585 -5.43722
head 10.0401 0.335677 -2.80473
rclavicle 2.01518e-014 1.59028e-014
rhumerus -48.0378 -10.4318 -72.7504
rradius 37.7291
rwrist -12.7636
rhand -17.1316 -4.65723
rfingers 7.12502
rthumb 9.10836 -34.4406
lclavicle 2.01518e-014 1.59028e-014
lhumerus -38.2233 3.69782 81.1629
lradius 36.1235
lwrist 13.8268
lhand -12.9088 -0.577823
lfingers 7.12502
lthumb 13.1811 28.9855
rfemur -18.1164 -0.71411 28.7734
rtibia 26.7185
rfoot -11.0542 -12.7059
rtoes 4.28613
lfemur -1.08928 -1.73187 -11.8275
ltibia 48.2159
lfoot 9.32131 -3.88996
ltoes -11.2673
343
root 0.672493 18.0666 -23.23 4.58796 6.25607 -3.78056
lowerback 2.98241 -1.72458 1.89227
upperback -2.0957 -2.08464 3.65539
thorax -3.76668 -1.03601 2.84339
lowerneck -16.8404 0.872472 6.03193
upperneck 22.7549 0.909215 -5.41082
head 10.0771 0.30702 -2.80476
rclavicle 4.19187e-014 -5.40694e-014
rhumerus -47.969 -10.337 -72.924
rradius 38.0929
rwrist -12.9304
rhand -17.1659 -4.71886
rfingers 7.12502
rthumb 9.07525 -34.5036
lclavicle 4.19187e-014 -5.40694e-014
lhumerus -38.309 3.63549 81.1553
lradius 36.0993
lwrist 13.7867
lhand -12.8824 -0.558004
lfingers 7.12502
lthumb 13.2066 29.0037
rfemur -17.7579 -0.885282 28.9722
rtibia 26.5265
rfoot -11.1039 -12.6771
rtoes 4.23168
lfemur -1.83849 -1.6495 -11.5506
ltibia 49.3706
lfoot 7.95934 -3.64881
ltoes -11.3841
344
root 0.662548 18.067 -23.1874 4.47599 6.40417 -3.91743
lowerback 3.04651 -1.66992 2.06325
upperback -2.06069 -2.00125 3.66974
thorax -3.7751 -0.998521 2.75879
lowerneck -16.8459 0.826079 6.0407
upperneck 22.773 0.838763 -5.39734
head 10.0798 0.27716 -2.81125
rclavicle -1.21507e-014 2.06736e-014
rhumerus -47.8773 -10.2947 -73.0714
rradius 38.4049
rwrist -13.0478
rhand -17.1918 -4.7812
rfingers 7.12502
rthumb 9.05023 -34.5671
lclavicle -1.21507e-014 2.06736e-014
lhumerus -38.3785 3.55801 81.1534
lradius 36.067
lwrist 13.7612
lhand -12.8636 -0.51716
lfingers 7.12502
lthumb 13.2247 29.0433
rfemur -17.4007 -1.03892 29.169
rtibia 26.3344
rfoot -11.153 -12.6623
rtoes 4.21346
lfemur -2.59416 -1.56973 -11.2765
ltibia 50.4672
lfoot 6.53419 -3.39926
ltoes -11.4632
345
root 0.65257 18.0673 -23.1457 4.36635 6.55054 -4.03971
lowerback 3.11313 -1.48068 2.30787
upperback -2.00403 -1.74007 3.53801
thorax -3.77356 -0.876278 2.46946
lowerneck -16.9155 0.528711 5.9215
upperneck 22.837 0.368902 -5.07208
head 10.0845 0.0883013 -2.7396
rclavicle -2.11209e-015 -2.38542e-015
rhumerus -47.8905 -10.779 -73.1777
rradius 38.7064
rwrist -13.1087
rhand -17.2278 -4.85073
rfingers 7.12502
rthumb 9.01556 -34.6381
lclavicle -2.11209e-015 -2.38542e-015
lhumerus -38.2744 2.973 81.1675
lradius 35.9911
lwrist 13.7798
lhand -12.8607 -0.453876
lfingers 7.12502
lthumb 13.2275 29.1064
rfemur -17.051 -1.17823 29.3485
rtibia 26.1456
rfoot -11.203 -12.6626
rtoes 4.22731
lfemur -3.35965 -1.49844 -11.0233
ltibia 51.4982
lfoot 5.08687 -3.13097
ltoes -11.9382
